<svg height="512pt" viewBox="0 0 512 512" width="512pt" xmlns="http://www.w3.org/2000/svg"><path d="m472.46875 223h-184.808594l-.371094.039062 2.480469 43.960938 42 120-64.757812 55h52.988281c8.28125 0 15.78125-3.359375 21.210938-8.789062 3.128906-3.132813 5.570312-6.949219 7.078124-11.210938h102.480469zm0 0" fill="#ff637b"/><path d="m350 362c0-55.351562-44.890625-100-100-100h-119.144531c-48.539063 6.871094-85.855469 48.574219-85.855469 99 0 11.050781 8.949219 20 20 20h271.21875c7.996094-2.617188 13.78125-10.132812 13.78125-19zm0 0" fill="#fed2a4"/><path d="m265 137c0 8.875 5.777344 16.382812 13.773438 19h203.226562c11.039062 0 20-8.960938 20-20 0-8.875-5.777344-16.382812-13.773438-19-60 0-162.925781 0-203.226562 0-11.039062 0-20 8.960938-20 20zm0 0" fill="#766e6e"/><path d="m290.738281 213.707031.371094-.039062 182.375.007812 6.296875-57.675781h-195.097656zm0 0" fill="#e0f4ff"/><path d="m348.289062 422-38.289062 80h108.101562c10.1875 0 24.75-7.660156 25.878907-17.789062l6.789062-62.210938zm0 0" fill="#e0f4ff"/><path d="m346 10h40v106h-40zm0 0" fill="#fdbf00"/><path d="m330 442c-23.082031 0-191.617188 0-267.21875 0-7.996094 2.617188-13.78125 10.132812-13.78125 19 0 22.089844 17.910156 40 40 40h229.867188c17.816406-4.039062 31.132812-19.96875 31.132812-39 0-11.050781-8.949219-20-20-20zm0 0" fill="#fed2a4"/><path d="m230 442h-100l50-40zm0 0" fill="#ff637b"/><path d="m305 382c-7.691406 0-140.136719 0-209.25 0l54.625 43.699219 29.625-23.699219 6.625 5.300781 20.375-16.300781 43.375 34.699219zm0 0" fill="#fdbf00"/><path d="m59.605469 385.683594c-10.378907 4.722656-17.605469 15.175781-17.605469 27.316406 0 13.910156 9.464844 25.601562 22.304688 29h65.695312zm0 0" fill="#ff637b"/><path d="m140 262c0 5.523438-4.476562 10-10 10s-10-4.476562-10-10 4.476562-10 10-10 10 4.476562 10 10zm0 0"/><path d="m280 302c0-5.519531-4.480469-10-10-10s-10 4.480469-10 10 4.480469 10 10 10 10-4.480469 10-10zm0 0"/><path d="m240 342c0-5.519531-4.480469-10-10-10s-10 4.480469-10 10 4.480469 10 10 10 10-4.480469 10-10zm0 0"/><path d="m190 302c0-5.519531-4.480469-10-10-10s-10 4.480469-10 10 4.480469 10 10 10 10-4.480469 10-10zm0 0"/><path d="m130 332c-5.519531 0-10 4.480469-10 10s4.480469 10 10 10 10-4.480469 10-10-4.480469-10-10-10zm0 0"/><path d="m90 292c-5.519531 0-10 4.480469-10 10s4.480469 10 10 10 10-4.480469 10-10-4.480469-10-10-10zm0 0"/><path d="m482 106h-86v-96c0-5.523438-4.476562-10-10-10h-40c-5.523438 0-10 4.476562-10 10v96h-86c-16.574219 0-30 13.425781-30 30 0 14.179688 9.890625 26.082031 23.128906 29.195312l9.109375 86.839844c-.746093-.011718-1.492187-.035156-2.238281-.035156h-80c-5.523438 0-10 4.476562-10 10s4.476562 10 10 10h80c50.199219 0 90 41.015625 90 90 0 5.519531-4.480469 10-10 10-17.507812 0-285.4375 0-300 0-5.515625 0-10-4.484375-10-10 0-44.03125 31.359375-79.980469 72.03125-88.210938 5.414062-1.09375 8.914062-6.371093 7.820312-11.78125-1.097656-5.414062-6.375-8.914062-11.785156-7.820312-49.625 10.042969-88.066406 53.867188-88.066406 107.8125 0 9.15625 4.128906 17.367188 10.617188 22.871094-6.855469 7.414062-10.617188 16.980468-10.617188 27.128906 0 10.453125 4.035156 19.976562 10.621094 27.109375-6.855469 5.824219-10.621094 14.09375-10.621094 22.890625 0 27.570312 22.429688 50 50 50h368.101562c13.710938 0 33.972657-10.148438 35.820313-26.703125.425781-3.832031 34.875-319.734375 34.914063-320.082031 13.035156-3.027344 23.164062-14.753906 23.164062-29.214844 0-16.542969-13.457031-30-30-30zm-126-86h20v86h-20zm108.261719 186h-196.742188l-4.195312-40h205.304687zm-191.675781 48.328125-2.96875-28.328125h192.464843l-20.28125 186h-81.800781c0-10.453125-4.035156-19.976562-10.621094-27.109375 6.855469-5.824219 10.621094-14.09375 10.621094-22.890625 0-52.210938-37.070312-97.164062-87.414062-107.671875zm-14.078126 177.671875 50-40h11.492188c11.027344 0 20 8.972656 20 20 0 10.976562-8.894531 20-20 20zm-218.507812 0c-11.027344 0-20-8.972656-20-20 0-11.046875 8.953125-20 20-20h11.492188l50 40zm236.492188-40-46.492188 37.191406-33.992188-27.191406 12.5-10zm-146.492188 37.191406-46.492188-37.203125h92.984376c-14.308594 11.449219-32.222657 25.789063-46.492188 37.203125zm50-14.386718 21.492188 17.195312h-42.984376zm-160 47.195312c0-5.519531 4.480469-10 10-10h300c5.515625 0 10 4.484375 10 10 0 16.570312-13.429688 30-30 30-15.574219 0-244.460938 0-260 0-16.542969 0-30-13.457031-30-30zm398.101562 30h-68.105468c6.488281-8.609375 10.003906-19.035156 10.003906-30 0-9.160156-4.132812-17.371094-10.625-22.878906 2.003906-2.167969 3.761719-4.5625 5.242188-7.121094h85l-5.578126 51.101562c-.378906 3.433594-9.152343 8.898438-15.9375 8.898438zm63.898438-346c-19.378906 0-219.433594 0-232 0-5.515625 0-10-4.484375-10-10 0-5.519531 4.480469-10 10-10h232c5.515625 0 10 4.484375 10 10 0 5.519531-4.480469 10-10 10zm0 0"/></svg>