<svg id="Capa_1" enable-background="new 0 0 510 510" height="512" viewBox="0 0 510 510" width="512" xmlns="http://www.w3.org/2000/svg"><g><path d="m481.5 348.177-23.69 72.3h-422.57l-23.36-97.35c-30.759-128.154 118.414-228.775 242.23-173.31 18.76 8.121 23.352 12.877 103.99 70.56 11.299 2.443 19.15 2.008 23.08 2.15 70.664 1.786 120.472 64.152 100.32 125.65z" fill="#9f5528"/><path d="m481.5 348.177-23.69 72.3h-202.81v-270.25c18.834 8.547 18.717 9.788 103.1 70.15 11.299 2.443 19.15 2.008 23.08 2.15 70.664 1.786 120.472 64.152 100.32 125.65z" fill="#904d24"/><path d="m485.67 139.337c-15.63 15.63-40.93 15.88-57.51.94l-77.19 82.16-45.25-45.25 77.18-82.16c-14.93-16.59-14.69-41.88.95-57.52 26.04-26.04 71.1-6.75 71.75 30.08 35.918 0 56.533 45.286 30.07 71.75z" fill="#fcd2a0"/><path d="m485.67 139.337c-15.63 15.63-40.93 15.88-57.51.94l-77.19 82.16-25.09-25.09 129.75-129.76c36.8.67 56.08 45.71 30.04 71.75z" fill="#fab982"/><path d="m364.04 256.847c-5.81 28.41-20.03 56.67-37.09 73.74-36.033 36.033-95.328 33.909-131.53-2.79-45.94-46.56-44.55-136.37 59.58-165.87v-.02c75.561-21.309 124.644 18.583 109.04 94.94z" fill="#904d24"/><path d="m326.95 330.587c-36.033 36.033-95.328 33.909-131.53-2.79l151.8-151.8c38.337 38.292 14.435 119.865-20.27 154.59z" fill="#824520"/><path d="m510 390.477v15c0 43.56-35.44 79-79 79h-352c-43.56 0-79-35.44-79-79v-15z" fill="#e3eaee"/><path d="m510 390.477v15c0 43.56-35.44 79-79 79h-176v-94z" fill="#c3d1db"/><path d="m222.277 207.437h30v30h-30z" fill="#824520"/><path d="m81 310.477h30v30h-30z" fill="#904d24"/><path d="m103 230.477h30v30h-30z" fill="#904d24"/><path d="m375 310.477h30v30h-30z" fill="#824520"/></g></svg>